<?xml version="1.0" encoding="UTF-8"?>
<svg id="Layer_1" data-name="Layer 1" xmlns="http://www.w3.org/2000/svg" viewBox="0 0 600 200">
  <defs>
    <style>
      .cls-1 {
        stroke-width: 0px;
      }
    </style>
  </defs>
  <path class="cls-1" d="m74.54,63.5v55.42c0,1.37-.41,2.49-1.22,3.37-.81.88-1.84,1.32-3.08,1.32s-2.29-.42-3.05-1.27c-.77-.85-1.15-1.99-1.15-3.42v-.93l-3.12,2.73c-1.04.91-2.27,1.62-3.69,2.12-1.42.5-2.86.76-4.32.76h-6.49c-1.43,0-2.82-.24-4.17-.73-1.35-.49-2.63-1.21-3.83-2.15l-2.88-2.2c-1.37-1.07-2.46-2.48-3.27-4.22-.81-1.74-1.22-3.54-1.22-5.4v-18.21c0-1.63.43-3.32,1.29-5.08.86-1.76,1.93-3.12,3.2-4.1l2.88-2.2c1.24-.98,2.51-1.71,3.83-2.2s2.71-.73,4.17-.73h6.49c1.46,0,2.91.26,4.32.78s2.64,1.24,3.69,2.15l3.12,2.69v-18.51c0-1.37.39-2.49,1.17-3.37s1.79-1.32,3.03-1.32,2.26.43,3.08,1.29c.81.86,1.22,1.99,1.22,3.39Zm-26.12,21.29c-.88,0-1.79.37-2.73,1.12-.07.03-.11.07-.15.1l-2.78,2.2c-.36.29-.65.7-.88,1.22-.23.52-.34,1.04-.34,1.56v17.92c0,.55.11,1.11.34,1.66.23.55.52.96.88,1.22l2.78,2.2s.06.07.1.1c.98.75,1.9,1.12,2.78,1.12h6.49c.49,0,.97-.1,1.44-.29.47-.2.97-.5,1.49-.93l7.08-5.76c.33-.26.59-.67.81-1.22.21-.55.32-1.12.32-1.71v-10.69c0-.59-.11-1.15-.32-1.68-.21-.54-.48-.94-.81-1.2l-7.08-5.71c-.49-.42-.96-.73-1.42-.93-.46-.2-.96-.29-1.51-.29h-6.49Z"/>
  <path class="cls-1" d="m107.84,76.39h14.89c3.38,0,6.28,1.17,8.69,3.52,2.41,2.34,3.68,5.31,3.81,8.89l1.12,30.03v.2c0,1.3-.4,2.39-1.2,3.27-.8.88-1.77,1.32-2.91,1.32s-2.13-.37-2.88-1.1c-.75-.73-1.22-1.77-1.42-3.1l-4.88,3.08c-.52.33-1.13.59-1.83.81-.7.21-1.33.32-1.88.32h-11.91c-3.45,0-6.4-1.21-8.84-3.64s-3.66-5.35-3.66-8.76v-4.69c0-3.42,1.24-6.36,3.71-8.81,2.47-2.46,5.4-3.69,8.79-3.69h16.02c.68,0,1.33.06,1.93.17.6.11,1.18.29,1.73.51l-.29-5.91c-.07-1.2-.47-2.17-1.22-2.91-.75-.73-1.71-1.1-2.88-1.1h-14.89c-1.4,0-2.5-.37-3.3-1.12-.8-.75-1.2-1.77-1.2-3.08s.42-2.25,1.25-3.03,1.91-1.17,3.25-1.17Zm-.49,26.03c-1.04,0-1.97.41-2.78,1.22-.81.81-1.22,1.77-1.22,2.88v4.69c0,1.07.4,2.01,1.2,2.81.8.8,1.77,1.2,2.91,1.2h11.18l9.03-5.08-.1-3.71c0-1.14-.41-2.09-1.22-2.86-.81-.76-1.77-1.15-2.88-1.15h-16.11Z"/>
  <path class="cls-1" d="m165.16,81.03v4.39l6.98-6.1c1.04-.91,2.29-1.63,3.74-2.15,1.45-.52,2.87-.78,4.27-.78h5.52c3.42,0,6.36,1.22,8.81,3.66,2.46,2.44,3.69,5.35,3.69,8.74v1.9c0,1.4-.39,2.53-1.17,3.39s-1.79,1.29-3.03,1.29-2.25-.44-3.03-1.32-1.17-2-1.17-3.37v-1.9c0-1.07-.41-2.03-1.22-2.86-.81-.83-1.77-1.25-2.88-1.25h-5.52c-.46,0-.99.12-1.59.37-.6.24-1.07.53-1.39.85l-12.01,10.6v22.41c0,1.4-.39,2.53-1.17,3.39-.78.86-1.79,1.29-3.03,1.29s-2.25-.44-3.03-1.32-1.17-2-1.17-3.37v-37.89c0-1.43.38-2.56,1.15-3.39.76-.83,1.78-1.25,3.05-1.25s2.25.43,3.03,1.29,1.17,1.98,1.17,3.34Z"/>
  <path class="cls-1" d="m226.98,63.5v32.81l21.68-18.7c.62-.49,1.16-.83,1.64-1.03.47-.2.97-.29,1.49-.29,1.14,0,2.11.41,2.91,1.22.8.81,1.2,1.77,1.2,2.88,0,.62-.15,1.23-.44,1.83s-.72,1.16-1.27,1.68l-16.6,14.4,20.61,17.58c.62.52,1.07,1.06,1.37,1.61s.44,1.16.44,1.81c0,1.17-.39,2.16-1.17,2.98-.78.81-1.73,1.22-2.83,1.22-.62,0-1.2-.1-1.73-.29s-1.07-.5-1.59-.93l-21.58-18.46-4.1,3.47v11.62c0,1.4-.39,2.53-1.17,3.39-.78.86-1.79,1.29-3.03,1.29s-2.25-.44-3.03-1.32-1.17-2-1.17-3.37v-55.42c0-1.43.38-2.57,1.15-3.42.76-.85,1.78-1.27,3.05-1.27,1.2,0,2.21.44,3,1.32.8.88,1.2,2,1.2,3.37Z"/>
  <path class="cls-1" d="m288.79,81.03v5.47l10.99,25.1h2.59l11.04-25.1v-5.47c0-1.37.39-2.48,1.17-3.34s1.79-1.29,3.03-1.29,2.25.42,3.03,1.27,1.17,1.97,1.17,3.37v6.2c0,.36-.04.72-.12,1.07-.08.36-.25.83-.51,1.42l-21.48,49.41c-.29.55-.83,1.03-1.61,1.44-.78.41-1.64.61-2.59.61h-10.5c-1.4,0-2.51-.38-3.34-1.15-.83-.77-1.25-1.78-1.25-3.05,0-1.2.42-2.21,1.27-3,.85-.8,1.95-1.2,3.32-1.2h8.3l5.52-12.7h-1.42c-.98,0-1.84-.19-2.59-.56-.75-.37-1.25-.89-1.51-1.54l-12.3-28.27c-.23-.49-.38-.91-.46-1.27-.08-.36-.12-.76-.12-1.22v-6.2c0-1.43.38-2.56,1.15-3.39.76-.83,1.78-1.25,3.05-1.25s2.25.43,3.03,1.29,1.17,1.98,1.17,3.34Z"/>
  <path class="cls-1" d="m383.62,63.5v55.42c0,1.37-.41,2.49-1.22,3.37-.81.88-1.84,1.32-3.08,1.32s-2.29-.42-3.05-1.27c-.77-.85-1.15-1.99-1.15-3.42v-.93l-3.12,2.73c-1.04.91-2.27,1.62-3.69,2.12-1.42.5-2.86.76-4.32.76h-6.49c-1.43,0-2.82-.24-4.17-.73-1.35-.49-2.63-1.21-3.83-2.15l-2.88-2.2c-1.37-1.07-2.46-2.48-3.27-4.22-.81-1.74-1.22-3.54-1.22-5.4v-18.21c0-1.63.43-3.32,1.29-5.08.86-1.76,1.93-3.12,3.2-4.1l2.88-2.2c1.24-.98,2.51-1.71,3.83-2.2s2.71-.73,4.17-.73h6.49c1.46,0,2.91.26,4.32.78s2.64,1.24,3.69,2.15l3.12,2.69v-18.51c0-1.37.39-2.49,1.17-3.37s1.79-1.32,3.03-1.32,2.26.43,3.08,1.29c.81.86,1.22,1.99,1.22,3.39Zm-26.12,21.29c-.88,0-1.79.37-2.73,1.12-.07.03-.11.07-.15.1l-2.78,2.2c-.36.29-.65.7-.88,1.22-.23.52-.34,1.04-.34,1.56v17.92c0,.55.11,1.11.34,1.66.23.55.52.96.88,1.22l2.78,2.2s.06.07.1.1c.98.75,1.9,1.12,2.78,1.12h6.49c.49,0,.97-.1,1.44-.29.47-.2.97-.5,1.49-.93l7.08-5.76c.33-.26.59-.67.81-1.22.21-.55.32-1.12.32-1.71v-10.69c0-.59-.11-1.15-.32-1.68-.21-.54-.48-.94-.81-1.2l-7.08-5.71c-.49-.42-.96-.73-1.42-.93-.46-.2-.96-.29-1.51-.29h-6.49Z"/>
  <path class="cls-1" d="m416.92,76.39h14.89c3.38,0,6.28,1.17,8.69,3.52,2.41,2.34,3.68,5.31,3.81,8.89l1.12,30.03v.2c0,1.3-.4,2.39-1.2,3.27-.8.88-1.77,1.32-2.91,1.32s-2.13-.37-2.88-1.1c-.75-.73-1.22-1.77-1.42-3.1l-4.88,3.08c-.52.33-1.13.59-1.83.81-.7.21-1.33.32-1.88.32h-11.91c-3.45,0-6.4-1.21-8.84-3.64s-3.66-5.35-3.66-8.76v-4.69c0-3.42,1.24-6.36,3.71-8.81,2.47-2.46,5.4-3.69,8.79-3.69h16.02c.68,0,1.33.06,1.93.17.6.11,1.18.29,1.73.51l-.29-5.91c-.07-1.2-.47-2.17-1.22-2.91-.75-.73-1.71-1.1-2.88-1.1h-14.89c-1.4,0-2.5-.37-3.3-1.12-.8-.75-1.2-1.77-1.2-3.08s.42-2.25,1.25-3.03,1.91-1.17,3.25-1.17Zm-.49,26.03c-1.04,0-1.97.41-2.78,1.22-.81.81-1.22,1.77-1.22,2.88v4.69c0,1.07.4,2.01,1.2,2.81.8.8,1.77,1.2,2.91,1.2h11.18l9.03-5.08-.1-3.71c0-1.14-.41-2.09-1.22-2.86-.81-.76-1.77-1.15-2.88-1.15h-16.11Z"/>
  <path class="cls-1" d="m490.75,58.81h9.72c1.4,0,2.53.39,3.39,1.17.86.78,1.29,1.79,1.29,3.03s-.44,2.21-1.32,3-2,1.2-3.37,1.2h-9.72c-1.69,0-3.17.63-4.42,1.9-1.25,1.27-1.88,2.73-1.88,4.39v2.88h7.81c1.4,0,2.53.39,3.39,1.17.86.78,1.29,1.79,1.29,3.03s-.44,2.25-1.32,3.03-2,1.17-3.37,1.17h-7.81v34.13c0,1.4-.39,2.53-1.17,3.39-.78.86-1.79,1.29-3.03,1.29s-2.25-.44-3.03-1.32-1.17-2-1.17-3.37v-34.13h-3.52c-1.43,0-2.57-.38-3.42-1.15-.85-.76-1.27-1.78-1.27-3.05,0-1.2.44-2.21,1.32-3s2-1.2,3.37-1.2h3.52v-2.88c0-4.04,1.45-7.5,4.35-10.38,2.9-2.88,6.35-4.32,10.35-4.32Z"/>
  <path class="cls-1" d="m552.56,58.81h9.72c1.4,0,2.53.39,3.39,1.17.86.78,1.29,1.79,1.29,3.03s-.44,2.21-1.32,3-2,1.2-3.37,1.2h-9.72c-1.69,0-3.17.63-4.42,1.9-1.25,1.27-1.88,2.73-1.88,4.39v2.88h7.81c1.4,0,2.53.39,3.39,1.17.86.78,1.29,1.79,1.29,3.03s-.44,2.25-1.32,3.03-2,1.17-3.37,1.17h-7.81v34.13c0,1.4-.39,2.53-1.17,3.39-.78.86-1.79,1.29-3.03,1.29s-2.25-.44-3.03-1.32-1.17-2-1.17-3.37v-34.13h-3.52c-1.43,0-2.57-.38-3.42-1.15-.85-.76-1.27-1.78-1.27-3.05,0-1.2.44-2.21,1.32-3s2-1.2,3.37-1.2h3.52v-2.88c0-4.04,1.45-7.5,4.35-10.38,2.9-2.88,6.35-4.32,10.35-4.32Z"/>
</svg>